<?xml version="1.0" encoding="UTF-8" standalone="no"?>
<svg
   xmlns:dc="http://purl.org/dc/elements/1.1/"
   xmlns:cc="http://creativecommons.org/ns#"
   xmlns:rdf="http://www.w3.org/1999/02/22-rdf-syntax-ns#"
   xmlns:svg="http://www.w3.org/2000/svg"
   xmlns="http://www.w3.org/2000/svg"
   xmlns:sodipodi="http://sodipodi.sourceforge.net/DTD/sodipodi-0.dtd"
   xmlns:inkscape="http://www.inkscape.org/namespaces/inkscape"
   width="6.3004675mm"
   height="6.4198694mm"
   viewBox="0 0 6.3004675 6.4198694"
   version="1.1"
   id="svg116"
   inkscape:version="1.0.1 (3bc2e813f5, 2020-09-07)"
   sodipodi:docname="favicon.svg">
  <defs
     id="defs110" />
  <sodipodi:namedview
     id="base"
     pagecolor="#ffffff"
     bordercolor="#666666"
     borderopacity="1.0"
     inkscape:pageopacity="0.0"
     inkscape:pageshadow="2"
     inkscape:zoom="7.9195959"
     inkscape:cx="14.732311"
     inkscape:cy="23.389591"
     inkscape:document-units="mm"
     inkscape:current-layer="layer1"
     inkscape:document-rotation="0"
     showgrid="false"
     fit-margin-top="0"
     fit-margin-left="0"
     fit-margin-right="0"
     fit-margin-bottom="0"
     inkscape:window-width="1366"
     inkscape:window-height="704"
     inkscape:window-x="0"
     inkscape:window-y="0"
     inkscape:window-maximized="1" />
  <metadata
     id="metadata113">
    <rdf:RDF>
      <cc:Work
         rdf:about="">
        <dc:format>image/svg+xml</dc:format>
        <dc:type
           rdf:resource="http://purl.org/dc/dcmitype/StillImage" />
        <dc:title></dc:title>
      </cc:Work>
    </rdf:RDF>
  </metadata>
  <g
     inkscape:label="Livello 1"
     inkscape:groupmode="layer"
     id="layer1"
     transform="translate(-112.51048,-51.974589)">
    <g
       data-v-fde0c5aa=""
       id="c551a74b-cf84-4d5b-9b6e-22942db01d2c"
       stroke="none"
       fill="#25bdd6"
       transform="matrix(0.07133188,0,0,0.07133188,112.09412,51.61793)">
      <path
         d="M 43.518,95 C 27.228,95 13.976,81.751 13.976,65.461 c 0,-16.292 13.252,-29.544 29.542,-29.544 16.287,0 29.541,13.252 29.541,29.544 C 73.059,81.751 59.805,95 43.518,95 Z m 0,-57.455 c -15.391,0 -27.913,12.522 -27.913,27.916 0,15.39 12.522,27.91 27.913,27.91 15.39,0 27.913,-12.521 27.913,-27.91 0,-15.394 -12.524,-27.916 -27.913,-27.916 z"
         id="path13" />
      <path
         d="m 72.873,70.432 c 0,0 0.098,0.023 0.283,0.062 0.185,0.041 0.464,0.101 0.825,0.203 0.717,0.199 1.769,0.543 3.06,1.151 0.64,0.309 1.343,0.681 2.081,1.151 0.73,0.475 1.509,1.028 2.231,1.807 0.176,0.193 0.351,0.405 0.508,0.645 0.156,0.242 0.303,0.509 0.381,0.841 0.094,0.416 0.014,0.661 -0.017,0.98 -0.03,0.151 -0.075,0.304 -0.116,0.46 -0.048,0.151 -0.119,0.301 -0.184,0.45 -0.285,0.598 -0.774,1.11 -1.349,1.466 -0.569,0.363 -1.206,0.599 -1.86,0.763 -1.308,0.319 -2.686,0.385 -4.099,0.359 -1.416,-0.04 -2.869,-0.186 -4.36,-0.392 A 76.023,76.023 0 0 1 67.998,80.026 C 67.619,79.962 67.237,79.898 66.854,79.828 66.47,79.758 66.043,79.68 65.658,79.589 64.084,79.23 62.507,78.8 60.891,78.348 54.439,76.52 47.436,74.279 40.141,71.744 36.495,70.476 32.952,69.185 29.549,67.882 26.146,66.579 22.881,65.274 19.803,63.92 A 84.634,84.634 0 0 1 15.339,61.841 29.702,29.702 0 0 1 14.274,61.286 69.375,69.375 0 0 0 13.75,61.005 l -0.528,-0.313 c -0.174,-0.103 -0.357,-0.204 -0.521,-0.31 -0.158,-0.108 -0.315,-0.213 -0.472,-0.318 L 11.971,59.887 11.744,59.72 11.293,59.387 C 10.089,58.495 8.924,57.58 7.93,56.527 A 10.182,10.182 0 0 1 6.613,54.808 C 6.526,54.65 6.433,54.497 6.355,54.333 A 41.822,41.822 0 0 1 6.14,53.833 C 6.078,53.649 6.025,53.46 5.972,53.275 5.925,53.095 5.917,52.953 5.889,52.793 L 5.865,52.637 5.857,52.51 5.844,52.259 C 5.83,52.094 5.841,51.923 5.841,51.758 A 6.31,6.31 0 0 1 5.95,50.761 3.86,3.86 0 0 1 6.816,48.978 c 0.436,-0.495 0.987,-0.815 1.523,-1.029 a 6.874,6.874 0 0 1 1.596,-0.4 c 1.033,-0.137 1.986,-0.116 2.854,-0.062 0.867,0.053 1.651,0.148 2.355,0.247 1.405,0.202 2.483,0.416 3.212,0.564 l 1.112,0.231 c 0,0 -0.389,-0.046 -1.127,-0.138 -0.739,-0.085 -1.829,-0.213 -3.234,-0.311 a 31.867,31.867 0 0 0 -2.333,-0.077 c -0.849,0.007 -1.773,0.05 -2.722,0.241 -0.931,0.194 -1.937,0.553 -2.542,1.319 A 2.899,2.899 0 0 0 6.947,50.94 5.118,5.118 0 0 0 6.905,51.759 c 0.009,0.143 0.005,0.283 0.027,0.43 l 0.024,0.217 0.012,0.107 C 6.969,52.528 6.958,52.45 6.964,52.49 l 0.004,0.014 0.005,0.029 0.013,0.059 0.049,0.232 c 0.019,0.072 0.028,0.168 0.055,0.218 0.045,0.12 0.09,0.235 0.135,0.357 l 0.193,0.386 c 0.07,0.128 0.156,0.251 0.232,0.378 0.334,0.499 0.754,0.974 1.224,1.426 0.945,0.913 2.083,1.729 3.302,2.548 0.153,0.106 0.308,0.207 0.462,0.312 l 0.234,0.159 0.216,0.132 c 0.16,0.101 0.322,0.199 0.484,0.298 0.161,0.094 0.317,0.169 0.476,0.258 l 0.479,0.253 0.512,0.252 c 0.341,0.169 0.688,0.333 1.045,0.492 a 99.925,99.925 0 0 0 4.449,1.89 c 3.081,1.237 6.356,2.457 9.762,3.695 a 822.157,822.157 0 0 0 10.582,3.757 c 7.266,2.522 14.209,4.892 20.552,6.908 1.584,0.496 3.137,0.978 4.634,1.378 0.38,0.106 0.726,0.182 1.105,0.268 0.381,0.08 0.757,0.162 1.133,0.241 a 74.87,74.87 0 0 0 2.199,0.438 c 1.442,0.268 2.839,0.471 4.179,0.577 1.338,0.094 2.628,0.094 3.792,-0.126 1.153,-0.214 2.185,-0.707 2.647,-1.557 0.051,-0.109 0.113,-0.213 0.154,-0.326 0.037,-0.115 0.079,-0.227 0.112,-0.342 l 0.065,-0.36 0.006,-0.021 v -0.012 c 0.004,-0.01 0,0.056 0,0.022 l 0.004,-0.051 0.002,-0.105 c -0.002,-0.052 -0.012,-0.071 -0.012,-0.114 a 1.88,1.88 0 0 0 -0.237,-0.604 4.219,4.219 0 0 0 -0.398,-0.585 c -0.602,-0.738 -1.318,-1.332 -1.991,-1.839 a 19.232,19.232 0 0 0 -1.947,-1.267 19.456,19.456 0 0 0 -2.929,-1.371 c -0.349,-0.13 -0.616,-0.214 -0.799,-0.271 z m 17.435,-24.286 -0.024,4.724 3.879,2.697 -4.5,1.439 -1.368,4.522 -2.758,-3.837 -4.723,0.099 2.796,-3.81 -1.554,-4.46 4.487,1.48 z M 88.2,35.305 l -0.373,1.961 1.403,1.418 -1.98,0.252 -0.914,1.772 -0.851,-1.805 -1.97,-0.323 1.454,-1.366 -0.302,-1.974 1.75,0.961 z m 2.985,-5.117 -0.587,0.87 0.384,0.976 -1.006,-0.289 -0.811,0.667 -0.037,-1.049 -0.883,-0.562 0.984,-0.359 0.263,-1.015 0.646,0.826 z M 44.407,21 l -0.6,3.705 2.71,2.593 -3.707,0.576 -1.629,3.38 -1.692,-3.349 -3.719,-0.507 2.664,-2.643 -0.67,-3.691 3.337,1.714 z m 33.708,6.207 -1.139,2.393 1.326,2.294 -2.627,-0.343 -1.773,1.97 -0.484,-2.605 -2.422,-1.078 2.327,-1.265 0.277,-2.636 1.923,1.821 z m -3.38,-13.069 0.284,1.456 1.359,0.59 -1.297,0.719 -0.142,1.477 -1.085,-1.011 -1.448,0.32 0.627,-1.344 -0.752,-1.277 1.471,0.181 z m -13.224,-7.269 -0.199,4.483 3.579,2.707 -4.324,1.195 -1.468,4.241 -2.473,-3.744 -4.486,-0.085 2.795,-3.51 -1.306,-4.293 4.202,1.575 z m 24.164,14.878 0.469,0.946 1.046,0.153 -0.757,0.738 0.178,1.04 -0.935,-0.49 -0.934,0.491 0.178,-1.041 -0.757,-0.737 1.046,-0.154 z M 32.63,5 l -0.386,3.279 2.483,2.179 -3.239,0.646 -1.303,3.034 -1.616,-2.881 -3.289,-0.301 2.241,-2.427 -0.73,-3.222 3.001,1.381 z"
         id="path15" />
      <circle
         cx="79.101997"
         cy="36.5"
         r="0.58099997"
         id="circle17" />
      <circle
         cx="68.010002"
         cy="22.726"
         r="0.34900001"
         id="circle19" />
      <circle
         cx="30.818001"
         cy="22.377001"
         r="0.81400001"
         id="circle21" />
      <circle
         cx="79.417"
         cy="22.507"
         r="0.34900001"
         id="circle23" />
      <circle
         cx="91.957001"
         cy="36.793999"
         r="0.27900001"
         id="circle25" />
      <circle
         cx="78.296997"
         cy="47.286999"
         r="0.34900001"
         id="circle27" />
      <circle
         cx="91.866997"
         cy="25.848"
         r="0.27900001"
         id="circle29" />
      <path
         d="m 90.577,6.335 -0.807,4.233 3.032,3.064 -4.278,0.541 -1.975,3.829 -1.836,-3.898 -4.252,-0.698 3.138,-2.948 -0.652,-4.263 3.779,2.075 z m -68.586,16.337 -1.975,-0.282 -1.352,1.467 -0.342,-1.965 -1.815,-0.833 1.765,-0.933 0.232,-1.982 1.431,1.387 1.959,-0.391 -0.88,1.791 z m -3.169,15.847 -0.896,-0.545 -0.956,0.429 0.24,-1.019 -0.703,-0.778 1.045,-0.085 0.522,-0.91 0.404,0.968 1.027,0.214 -0.796,0.684 z m -5.37,-3.247 -2.444,-1.027 -2.23,1.431 0.222,-2.64 -2.05,-1.68 2.579,-0.605 0.964,-2.468 1.373,2.265 2.646,0.155 -1.731,2.005 z m 13.547,-2.647 -0.924,0.512 -0.103,1.052 -0.773,-0.722 -1.031,0.226 0.448,-0.956 -0.535,-0.911 1.048,0.129 0.702,-0.789 0.201,1.037 z"
         id="path31" />
      <circle
         cx="11.979"
         cy="22.726"
         r="0.58099997"
         id="circle33" />
      <circle
         cx="25.202999"
         cy="15.024"
         r="0.34900001"
         id="circle35" />
      <circle
         cx="25.950001"
         cy="26.409"
         r="0.34900001"
         id="circle37" />
      <circle
         cx="12.26"
         cy="39.597"
         r="0.278"
         id="circle39" />
      <circle
         cx="23.188999"
         cy="39.000999"
         r="0.27900001"
         id="circle41" />
      <path
         d="m 60.409,30.363 -1.998,-0.018 -1.143,1.635 -0.602,-1.904 -1.907,-0.585 1.625,-1.158 -0.033,-1.996 1.603,1.185 1.888,-0.647 -0.634,1.892 z m 8.3,8.937 -0.96,-0.421 -0.891,0.552 0.104,-1.043 -0.799,-0.677 1.025,-0.224 0.395,-0.969 0.528,0.904 1.047,0.078 -0.698,0.783 z"
         id="path43" />
      <circle
         cx="45.702999"
         cy="15.023"
         r="0.815"
         id="circle45" />
      <circle
         cx="38.369999"
         cy="13.182"
         r="0.34900001"
         id="circle47" />
      <path
         d="m 46.347,8.953 -0.925,0.511 -0.104,1.053 -0.771,-0.722 -1.032,0.226 0.447,-0.956 -0.534,-0.912 1.049,0.129 0.702,-0.788 0.199,1.037 z m -31.505,0.623 -1.138,2.393 1.326,2.294 -2.627,-0.343 -1.774,1.97 -0.484,-2.605 -2.421,-1.077 2.326,-1.266 0.277,-2.636 1.923,1.821 z"
         id="path49" />
    </g>
  </g>
</svg>
